<?xml version="1.0" encoding="UTF-8" standalone="no"?>
<!-- Created with Inkscape (http://www.inkscape.org/) -->

<svg
   xmlns:dc="http://purl.org/dc/elements/1.1/"
   xmlns:cc="http://creativecommons.org/ns#"
   xmlns:rdf="http://www.w3.org/1999/02/22-rdf-syntax-ns#"
   xmlns:svg="http://www.w3.org/2000/svg"
   xmlns="http://www.w3.org/2000/svg"
   xmlns:sodipodi="http://sodipodi.sourceforge.net/DTD/sodipodi-0.dtd"
   xmlns:inkscape="http://www.inkscape.org/namespaces/inkscape"
   width="90.169998mm"
   height="90.169998mm"
   viewBox="0 0 90.169998 90.169998"
   version="1.1"
   id="svg8"
   inkscape:version="0.92.4 (5da689c313, 2019-01-14)"
   sodipodi:docname="icon.svg">
  <defs
     id="defs2" />
  <sodipodi:namedview
     id="base"
     pagecolor="#ffffff"
     bordercolor="#666666"
     borderopacity="1.0"
     inkscape:pageopacity="0.0"
     inkscape:pageshadow="2"
     inkscape:zoom="1.979899"
     inkscape:cx="367.41005"
     inkscape:cy="128.21266"
     inkscape:document-units="mm"
     inkscape:current-layer="layer1"
     showgrid="false"
     inkscape:window-width="2880"
     inkscape:window-height="1526"
     inkscape:window-x="-11"
     inkscape:window-y="777"
     inkscape:window-maximized="1"
     showguides="false" />
  <metadata
     id="metadata5">
    <rdf:RDF>
      <cc:Work
         rdf:about="">
        <dc:format>image/svg+xml</dc:format>
        <dc:type
           rdf:resource="http://purl.org/dc/dcmitype/StillImage" />
        <dc:title />
      </cc:Work>
    </rdf:RDF>
  </metadata>
  <g
     inkscape:label="Layer 1"
     inkscape:groupmode="layer"
     id="layer1"
     transform="translate(0,-206.83)">
    <path
       inkscape:connector-curvature="0"
       style="fill:#4e89e5;fill-opacity:1;fill-rule:nonzero;stroke:none;stroke-width:0.35277778"
       d="m 45.070118,206.86611 c -12.125358,0 -23.264041,4.62057 -31.857487,13.21263 C 4.6205621,228.67081 0,239.81087 0,251.93623 c 0,12.12536 4.6205621,23.26404 13.212631,31.85611 7.215408,7.21541 16.23329,11.63064 26.439042,12.94392 4.007334,0.51676 10.150627,0.25493 14.530035,-0.61736 15.766134,-3.14193 29.23646,-15.35411 33.957618,-30.78538 4.952669,-16.19057 0.704176,-33.33888 -11.211719,-45.25478 -8.593448,-8.59206 -19.732128,-13.21263 -31.857489,-13.21263 z m -0.410655,3.53467 c 6.522255,-0.0592 13.040375,1.418 18.9811,4.39457 8.141448,4.07899 14.491448,10.42761 18.570442,18.57044 5.863554,11.70368 5.863554,25.43721 0,37.14089 -2.046387,4.08313 -4.084504,6.95495 -7.331164,10.32701 -6.869518,7.13549 -15.964571,11.48595 -26.080753,12.47401 -7.544756,0.73725 -15.330673,-0.74001 -22.299412,-4.23196 -4.084506,-2.04501 -6.95496,-4.08312 -10.327019,-7.32978 C 3.1653538,269.2251 -0.1846573,249.56187 7.9292319,233.36579 12.807488,223.62995 21.18596,216.26434 31.448211,212.69246 c 4.28432,-1.49104 8.749164,-2.25034 13.211252,-2.29168 z m 0,0"
       id="path10" />
    <path
       d="M 54.735422,274.17289 H 26.404353 c -2.821382,0 -5.11664,-2.29587 -5.11664,-5.11725 v -40.02121 c 0,-2.82138 2.295258,-5.11664 5.11664,-5.11664 h 28.331069 c 4.041306,0 7.328665,3.28736 7.328665,7.32806 v 35.59837 c 0,4.04131 -3.287359,7.32867 -7.328665,7.32867 z M 26.404353,225.93602 c -1.708382,0 -3.098417,1.39003 -3.098417,3.09841 v 40.02121 c 0,1.70899 1.390035,3.09903 3.098417,3.09903 h 28.331069 c 2.927699,0 5.310442,-2.38154 5.310442,-5.31045 v -35.59837 c 0,-2.9277 -2.382743,-5.30983 -5.310442,-5.30983 z"
       id="path867"
       inkscape:connector-curvature="0"
       style="fill:#4e89e5;stroke-width:0.60753262" />
    <path
       d="M 58.527033,278.59573 H 30.195964 c -4.831099,0 -8.907643,-5.53584 -8.907643,-9.01275 h 2.018223 c 0,2.63122 3.337177,6.99453 6.88942,6.99453 H 58.52764 c 2.9277,0 5.309228,-2.38153 5.309228,-5.30924 v -35.59898 c 0,-2.94228 -3.020045,-9.63303 -7.994522,-9.63303 v -2.01822 c 6.211413,0 10.012745,7.54373 10.012745,11.65125 v 35.59837 c 0,4.04071 -3.287359,7.32807 -7.328058,7.32807 z"
       id="path869"
       inkscape:connector-curvature="0"
       style="fill:#4e89e5;stroke-width:0.60753262" />
    <polygon
       style="fill:#4e89e5"
       id="polygon871"
       points="60.723,94 69.839,94 63,86.101 63,7 53,7 53,86.187 "
       transform="matrix(0.60753261,0,0,0.60753261,13.194771,220.88013)" />
    <path
       style="fill:#4e89e5;stroke-width:0.60753262"
       inkscape:connector-curvature="0"
       id="path873"
       d="m 58.044651,278.59573 h -8.34446 l -5.521256,-4.90279 v -49.16761 h 7.897924 v 48.24841 z m -7.571678,-1.8226 h 2.729643 l -3.555888,-3.16768 v -47.25753 h -3.645196 v 46.44223 z" />
    <path
       d="M 45.903719,248.00039 H 32.969958 c -1.215673,0 -2.204129,-0.98907 -2.204129,-2.20414 v -9.93194 c 0,-1.21567 0.989064,-2.20412 2.204129,-2.20412 h 12.933761 v 2.01822 H 32.969958 c -0.09903,0 -0.186512,0.0875 -0.186512,0.18651 v 9.93194 c 0,0.099 0.08748,0.18652 0.186512,0.18652 h 12.933761 z"
       id="path877"
       inkscape:connector-curvature="0"
       style="fill:#4e89e5;stroke-width:0.60753262" />
    <rect
       x="35.065945"
       y="237.28351"
       width="10.328054"
       height="2.4301305"
       id="rect879"
       style="fill:#4e89e5;stroke-width:0.60753262" />
    <rect
       x="38.711136"
       y="240.32117"
       width="6.6828585"
       height="1.8225979"
       id="rect881"
       style="fill:#4e89e5;stroke-width:0.60753262" />
    <rect
       x="37.496075"
       y="243.35884"
       width="7.8979239"
       height="1.8225979"
       id="rect883"
       style="fill:#4e89e5;stroke-width:0.60753262" />
  </g>
</svg>
